<?xml version="1.0" ?>
<!DOCTYPE svg  PUBLIC '-//W3C//DTD SVG 1.1//EN'  'http://www.w3.org/Graphics/SVG/1.1/DTD/svg11.dtd'>
<!-- Uploaded to: SVG Repo, www.svgrepo.com, Generator: SVG Repo Mixer Tools -->
<svg fill="#000000" width="800px" height="800px" viewBox="0 0 100 100" version="1.1" xml:space="preserve" xmlns="http://www.w3.org/2000/svg" xmlns:xlink="http://www.w3.org/1999/xlink">
<g id="_x31_"/>
<g id="_x32_"/>
<g id="_x33_"/>
<g id="_x34_"/>
<g id="_x35_"/>
<g id="_x36_"/>
<g id="_x37_"/>
<g id="_x38_"/>
<g id="_x39_"/>
<g id="_x31_0"/>
<g id="_x31_1"/>
<g id="_x31_2"/>
<g id="_x31_3"/>
<g id="_x31_4"/>
<g id="_x31_5"/>
<g id="_x31_6"/>
<g id="_x31_7">
<path d="M50,87.3c-18.3,0-32.1-12.9-32.1-30c0-14,19.5-36.1,27.6-43c2.6-2.2,6.3-2.2,8.9,0c8.1,6.9,27.6,29,27.6,43   C82.1,74.4,68.3,87.3,50,87.3z M50,16.7c-0.7,0-1.3,0.2-1.9,0.7C40.9,23.5,21.9,45,21.9,57.3c0,14.8,12.1,26,28.1,26   s28.1-11.2,28.1-26c0-12.3-19-33.9-26.2-39.9C51.3,16.9,50.7,16.7,50,16.7z M55.2,66.3H44.8c-1.1,0-2-0.9-2-2v-5.7h-5.7   c-1.1,0-2-0.9-2-2V46.2c0-1.1,0.9-2,2-2h5.7v-5.7c0-1.1,0.9-2,2-2h10.3c1.1,0,2,0.9,2,2v5.7h5.7c1.1,0,2,0.9,2,2v10.3   c0,1.1-0.9,2-2,2h-5.7v5.7C57.2,65.4,56.3,66.3,55.2,66.3z M46.8,62.3h6.3v-5.7c0-1.1,0.9-2,2-2h5.7v-6.3h-5.7c-1.1,0-2-0.9-2-2   v-5.7h-6.3v5.7c0,1.1-0.9,2-2,2h-5.7v6.3h5.7c1.1,0,2,0.9,2,2V62.3z"/>
</g>
<g id="_x31_8"/>
<g id="_x31_9"/>
<g id="_x32_0"/>
<g id="_x32_1"/>
<g id="_x32_2"/>
<g id="_x32_3"/>
<g id="_x32_4"/>
<g id="_x32_5"/>
</svg>