<svg enable-background="new 0 0 178 188" id="Layer_1" version="1.1" viewBox="0 0 178 188" width="100%" x="0px" xml:space="preserve" xmlns="http://www.w3.org/2000/svg" xmlns:xlink="http://www.w3.org/1999/xlink" y="0px"><rect fill="white" height="188.0" width="178.0" x="0" y="0"/>
<path d=" M179.000000,66.000000   C179.000000,107.333336 179.000000,148.166672 179.000000,189.000000   C119.666664,189.000000 60.333332,189.000000 1.000000,189.000000   C1.000000,126.333336 1.000000,63.666668 1.000000,1.000000   C60.333332,1.000000 119.666664,1.000000 179.000000,1.000000   C179.000000,22.500000 179.000000,44.000000 179.000000,66.000000  M16.043289,44.961803   C16.088448,77.623962 16.133606,110.286125 16.059128,143.759750   C17.765671,156.634445 26.905935,165.864868 38.940598,165.936707   C71.562042,166.131439 104.186081,166.130234 136.807632,165.947495   C149.554276,165.876099 159.904114,155.312973 159.959473,142.516479   C160.099152,110.227303 160.096573,77.936783 159.968491,45.647526   C159.918686,33.093678 150.567078,23.392332 137.505600,22.058687   C137.505600,22.058687 137.025574,22.157717 136.141266,22.001297   C133.748657,22.050447 131.356049,22.099600 128.040573,22.009468   C98.046814,22.075798 68.053055,22.142128 37.272762,22.103079   C24.482473,24.735910 17.466862,32.048687 16.043289,44.961803  z" fill="#FFFFFF" opacity="1.000000"/>
<path d=" M128.963440,22.148752   C131.356049,22.099600 133.748657,22.050447 136.667053,22.220304   C137.192841,22.439312 137.624054,22.541084 137.624054,22.541084   C137.624054,22.541084 137.969070,22.218199 137.969070,22.218199   C150.567078,23.392332 159.918686,33.093678 159.968491,45.647526   C160.096573,77.936783 160.099152,110.227303 159.959473,142.516479   C159.904114,155.312973 149.554276,165.876099 136.807632,165.947495   C104.186081,166.130234 71.562042,166.131439 38.940598,165.936707   C26.905935,165.864868 17.765671,156.634445 16.374166,143.034103   C16.792681,141.493164 16.986195,140.677933 16.986637,139.862595   C17.003313,109.183907 17.011477,78.505196 16.970436,47.826569   C16.968750,46.565819 16.482613,45.305717 16.222178,44.045315   C17.466862,32.048687 24.482473,24.735910 37.989891,22.403900   C39.357460,22.802614 40.007854,22.985796 40.658344,22.986132   C68.844604,23.000683 97.030891,23.009909 125.217079,22.963303   C126.466309,22.961237 127.714676,22.432281 128.963440,22.148752  M22.200558,34.915253   C21.142414,39.047710 19.201338,43.172806 19.166798,47.313805   C18.907042,78.456726 18.995462,109.602806 19.033869,140.747833   C19.050339,154.103363 27.888790,162.951263 41.277550,162.971588   C72.422546,163.018890 103.567726,163.012726 134.712738,162.964188   C148.018433,162.943451 156.937622,154.102539 156.958817,140.887573   C157.009018,109.576035 157.012146,78.264275 156.952637,46.952763   C156.927856,33.906868 148.017746,25.058397 134.910187,25.036463   C103.765205,24.984341 72.620010,25.052055 41.475029,24.997440   C33.587112,24.983608 27.236561,27.812738 22.200558,34.915253  z" fill="#f8982d" opacity="1.000000"/>
<path d=" M16.132732,44.503559   C16.482613,45.305717 16.968750,46.565819 16.970436,47.826569   C17.011477,78.505196 17.003313,109.183907 16.986637,139.862595   C16.986195,140.677933 16.792681,141.493164 16.433983,142.628372   C16.133606,110.286125 16.088448,77.623962 16.132732,44.503559  z" fill="#f8982d" opacity="1.000000"/>
<path d=" M128.502014,22.079109   C127.714676,22.432281 126.466309,22.961237 125.217079,22.963303   C97.030891,23.009909 68.844604,23.000683 40.658344,22.986132   C40.007854,22.985796 39.357460,22.802614 38.383163,22.456591   C68.053055,22.142128 98.046814,22.075798 128.502014,22.079109  z" fill="#f8982d" opacity="1.000000"/>
<path d=" M137.737335,22.138443   C137.969070,22.218199 137.624054,22.541084 137.624054,22.541084   C137.624054,22.541084 137.192841,22.439312 137.109207,22.298515   C137.025574,22.157717 137.505600,22.058687 137.737335,22.138443  z" fill="#f8982d" opacity="1.000000"/>
<path d=" M22.413754,34.609631   C27.236561,27.812738 33.587112,24.983608 41.475029,24.997440   C72.620010,25.052055 103.765205,24.984341 134.910187,25.036463   C148.017746,25.058397 156.927856,33.906868 156.952637,46.952763   C157.012146,78.264275 157.009018,109.576035 156.958817,140.887573   C156.937622,154.102539 148.018433,162.943451 134.712738,162.964188   C103.567726,163.012726 72.422546,163.018890 41.277550,162.971588   C27.888790,162.951263 19.050339,154.103363 19.033869,140.747833   C18.995462,109.602806 18.907042,78.456726 19.166798,47.313805   C19.201338,43.172806 21.142414,39.047710 22.413754,34.609631  M98.004478,89.981674   C98.004478,89.981674 98.039314,89.915161 98.259232,90.506195   C99.195412,90.611038 100.131599,90.715881 101.722580,90.826286   C102.140808,90.944031 102.559036,91.061768 103.078705,91.861900   C103.012558,93.378456 102.946419,94.895004 102.238892,96.226082   C101.821068,96.073387 101.403252,95.920685 100.835381,95.497177   C100.558586,95.265556 100.297684,95.290535 99.327911,95.618279   C98.870262,95.742844 98.412621,95.867401 97.309097,96.103691   C97.499962,97.070114 97.690826,98.036537 98.030746,99.400673   C98.030746,99.400673 98.084915,99.821938 98.099266,100.548576   C98.010834,101.928154 98.054451,103.332451 97.801910,104.681297   C97.454208,106.538414 96.862541,108.349724 96.503670,110.205460   C96.492867,110.261314 98.472191,110.926796 98.580177,110.745644   C99.529053,109.153839 100.261757,107.433380 101.062630,105.753006   C101.259697,105.339508 101.471909,104.933235 101.712173,104.453773   C102.830429,105.021286 103.815056,105.520981 104.947281,106.679482   C104.907578,107.125710 104.867874,107.571930 104.342056,108.588875   C104.292770,109.587799 104.243492,110.586716 104.292877,112.207771   C104.114807,112.808884 103.936745,113.409996 103.390984,114.290794   C103.174179,114.536575 103.079056,114.822815 103.125198,115.113754   C103.125198,115.113754 103.146446,115.153877 102.443535,115.161133   C99.027275,118.027374 95.770439,121.539642 97.269424,126.068298   C98.378189,129.418060 101.580132,132.074966 104.622192,135.121826   C105.388535,135.019226 106.154884,134.916626 107.316650,135.374176   C110.516869,134.977951 113.413696,130.900085 112.834351,127.303177   C113.187897,126.857132 113.541451,126.411087 114.627533,125.907585   C116.202148,123.936424 117.776764,121.965271 119.635605,119.638306   C120.530586,120.981705 121.192612,121.975418 122.093880,123.264618   C122.093880,123.264618 122.155907,123.639717 122.165840,124.400192   C123.160583,124.855492 124.155334,125.310791 125.150078,125.766090   C125.677727,124.436165 126.205383,123.106247 126.678154,121.787239   C126.678154,121.787239 126.671333,121.731705 127.410362,121.804619   C127.565285,120.517967 127.720207,119.231316 127.880058,117.277969   C127.984688,116.847145 128.089310,116.416321 128.650864,115.496620   C128.712616,114.838127 128.774368,114.179642 128.750793,112.884232   C128.860580,112.253860 128.970383,111.623497 129.601196,110.427177   C129.419708,107.952103 129.238235,105.477020 128.870377,102.469696   C128.868332,102.097054 128.866302,101.724411 128.944412,100.708923   C128.699081,100.145149 128.453751,99.581375 127.980202,98.388336   C127.937675,97.945107 127.895142,97.501884 128.404541,96.654289   C127.845032,95.841362 127.285530,95.028427 126.800011,94.106331   C126.800011,94.106331 126.802505,94.238174 126.776764,93.733688   C126.555473,93.490944 126.334190,93.248199 125.889290,92.713936   C125.889290,92.713936 125.856331,92.348015 125.948898,91.534218   C127.019241,90.664406 128.089584,89.794594 129.749588,88.924896   C130.142487,88.937637 130.535385,88.950378 131.671265,88.988930   C132.609985,88.025314 134.521103,86.702240 134.320557,86.159760   C133.409912,83.696213 132.814133,80.422379 128.984604,81.006325   C128.984604,81.006325 128.878540,81.145241 128.943695,80.378738   C128.353760,76.330147 125.862236,74.762260 121.998146,74.998512   C121.998146,74.998512 121.980400,75.039284 121.701424,74.549400   C121.364532,74.403191 121.027641,74.256989 120.295746,74.041283   C120.295746,74.041283 119.988083,73.783989 119.728020,73.403282   C119.498863,73.175896 119.223160,73.052422 118.477432,72.990486   C118.188385,72.907608 117.969978,72.735214 117.917534,71.606110   C117.945938,70.737755 117.974350,69.869408 118.794434,69.018860   C123.061485,68.846657 123.061485,68.846657 121.563049,65.429260   C115.040131,62.961956 108.517212,60.494652 101.908897,57.308842   C100.675819,56.715694 99.442734,56.122547 98.209656,55.529400   C97.538345,57.705387 96.404831,59.866463 96.333977,62.061832   C96.271111,64.009567 97.388451,65.995392 98.005722,67.990524   C98.005722,67.990524 97.973969,67.991028 97.316399,68.104385   C94.904854,69.977104 96.420929,70.975006 98.045532,71.956566   C98.045532,71.956566 98.063393,71.831802 98.395554,72.466423   C98.918823,73.714966 99.442085,74.963501 99.432007,76.362213   C98.937111,76.573563 98.442207,76.784920 97.254013,77.139069   C95.345245,78.967735 95.222870,80.336624 98.923981,80.920952   C99.618919,81.002838 100.313850,81.084724 101.349174,81.527802   C101.349174,81.527802 101.828346,81.660522 101.828346,81.660522   C101.828346,81.660522 102.269768,81.431152 102.450317,81.372826   C102.450317,81.372826 102.632004,81.427544 102.243462,82.146423   C100.841957,83.455421 99.440453,84.764420 98.004990,86.810814   C97.950005,87.545303 97.895020,88.279793 97.562843,89.245811   C97.733925,89.483559 97.904999,89.721313 98.004478,89.981674  M70.298225,75.025734   C69.486404,75.688454 68.674591,76.351173 67.364273,77.463226   C66.955017,80.446236 66.453011,83.422737 66.242760,86.419708   C66.213356,86.838943 67.616226,87.358650 68.755608,87.963928   C68.755608,87.963928 69.040520,88.273560 69.455711,88.722702   C70.284912,88.432549 71.114120,88.142403 72.097595,87.170349   C72.271904,86.738358 72.446213,86.306374 72.962555,85.327682   C73.598595,83.815994 74.447884,82.355507 74.825729,80.781830   C75.582581,77.629608 73.901093,75.339317 70.298225,75.025734  M81.578239,88.580238   C76.997986,87.162613 77.153275,91.810020 77.451515,93.150452   C77.952225,95.400887 76.554321,100.564018 83.056946,99.018463   C84.646431,100.050163 86.235916,101.081863 87.947365,102.752327   C87.909142,103.834785 87.870918,104.917244 87.072227,106.223305   C86.735344,106.753181 86.110100,107.280205 86.104820,107.813370   C86.025978,115.769386 85.925644,123.728577 86.107330,131.680679   C86.140343,133.125595 87.405975,134.542358 88.964859,135.990997   C89.646744,134.487183 90.914536,132.986542 90.922722,131.479080   C91.047363,108.515854 91.007324,85.551735 91.005493,62.587830   C91.005424,61.755817 91.194115,60.861073 90.947655,60.109394   C90.699905,59.353767 90.017799,58.740551 89.526039,58.064930   C88.963478,58.707897 88.400909,59.350868 87.112152,60.188492   C86.922874,61.838757 86.407166,63.527794 86.597839,65.132919   C87.744659,74.787094 86.759926,84.199730 84.070320,94.771301   C83.150787,91.988983 82.655235,90.489532 81.578239,88.580238  M47.794880,127.232826   C50.026203,128.442459 52.165306,130.416733 54.508446,130.699326   C59.099121,131.253021 63.813938,131.036026 68.454239,130.755417   C69.773880,130.675598 71.013641,129.275009 72.290031,128.480087   C71.015938,127.672989 69.783424,126.260956 68.460106,126.169998   C64.155853,125.874138 59.812168,125.920418 55.495815,126.110672   C52.443481,126.245209 51.361275,125.116905 51.496445,122.076767   C51.695721,117.594727 51.713825,113.087776 51.445244,108.613274   C51.375473,107.450928 49.954048,106.369728 49.153461,105.251251   C48.421066,106.364334 47.074558,107.468842 47.058884,108.591934   C46.975548,114.561111 47.225918,120.534943 47.794880,127.232826  M70.576050,59.056438   C64.917213,59.035423 59.256622,58.919865 53.600124,59.024780   C49.446148,59.101826 47.108490,61.390625 47.000034,65.573669   C46.879257,70.231842 46.831261,74.901634 47.044746,79.552910   C47.110126,80.977440 48.141209,82.357658 48.730061,83.758171   C49.158089,83.742439 49.586121,83.726715 50.014153,83.710991   C50.473640,82.092918 51.244835,80.491058 51.329983,78.853523   C51.528542,75.034843 51.466705,71.197380 51.376980,67.370651   C51.307491,64.407059 52.487564,63.208961 55.555000,63.332729   C60.040428,63.513714 64.541588,63.341576 69.035217,63.269081   C71.905571,63.222778 73.372108,62.267628 70.576050,59.056438  M80.664307,113.346756   C76.578773,112.367035 72.493240,111.387306 68.407707,110.407578   C68.151031,111.168480 67.894348,111.929382 67.637672,112.690285   C72.043358,114.770187 76.449036,116.850090 81.610336,119.286728   C81.467697,116.434647 81.398865,115.058441 80.664307,113.346756  z" fill="#FFFFFF" opacity="1.000000"/>
<path d=" M103.849548,135.040543   C101.580132,132.074966 98.378189,129.418060 97.269424,126.068298   C95.770439,121.539642 99.027275,118.027374 102.772552,115.517220   C101.551743,119.083359 100.001915,122.293411 98.452087,125.503464   C98.985664,125.795990 99.519241,126.088509 100.052818,126.381035   C105.651047,123.741348 107.354668,118.102898 108.705315,112.764244   C110.328644,106.347755 109.564407,100.165169 102.880280,96.411560   C102.946419,94.895004 103.012558,93.378456 103.375626,91.520195   C113.426025,96.110016 117.068466,102.736404 113.932671,113.016747   C112.103836,119.012405 108.085739,124.325752 105.215065,130.027863   C104.451920,131.543716 104.288383,133.361420 103.849548,135.040543  z" fill="#FFFFFF" opacity="1.000000"/>
<path d=" M128.193939,115.985497   C128.089310,116.416321 127.984688,116.847145 127.639526,117.855133   C127.156441,119.532104 126.913887,120.631905 126.671333,121.731705   C126.671333,121.731705 126.678154,121.787239 126.442139,122.002762   C124.856049,122.692101 123.505981,123.165909 122.155907,123.639717   C122.155907,123.639717 122.093880,123.264618 122.006943,122.713211   C122.457924,120.076370 123.018478,117.996483 123.530197,115.904640   C127.761597,98.606956 119.338219,84.716232 102.632004,81.427544   C102.632004,81.427544 102.450317,81.372826 102.184402,81.255371   C101.611687,81.032455 101.308449,81.042023 101.008789,81.166611   C100.313850,81.084724 99.618919,81.002838 98.515160,80.523849   C98.053329,79.083260 98.000320,78.039764 97.947311,76.996269   C98.442207,76.784920 98.937111,76.573563 100.024139,76.473312   C111.609550,77.708061 119.445847,83.886559 125.856331,92.348015   C125.856331,92.348015 125.889290,92.713936 126.000381,93.120392   C126.341820,93.763962 126.572159,94.001068 126.802505,94.238174   C126.802505,94.238174 126.800011,94.106331 126.797455,94.473824   C127.147476,95.580429 127.500046,96.319542 127.852615,97.058655   C127.895142,97.501884 127.937675,97.945107 128.058609,99.017876   C128.379440,100.215530 128.621841,100.783653 128.864258,101.351768   C128.866302,101.724411 128.868332,102.097054 128.902496,103.176544   C128.983139,106.253296 129.031647,108.623215 129.080170,110.993126   C128.970383,111.623497 128.860580,112.253860 128.574249,113.457779   C128.329788,114.682724 128.261856,115.334106 128.193939,115.985497  z" fill="#f8982d" opacity="1.000000"/>
<path d=" M102.437729,81.786987   C119.338219,84.716232 127.761597,98.606956 123.530197,115.904640   C123.018478,117.996483 122.457924,120.076370 121.887321,122.565475   C121.192612,121.975418 120.530586,120.981705 119.635605,119.638306   C117.776764,121.965271 116.202148,123.936424 114.326721,125.578293   C115.575203,121.230095 117.648949,117.328514 118.578979,113.171082   C121.834869,98.616714 112.115036,86.006012 98.038940,86.073425   C99.440453,84.764420 100.841957,83.455421 102.437729,81.786987  z" fill="#FFFFFF" opacity="1.000000"/>
<path d=" M98.021965,86.442116   C112.115036,86.006012 121.834869,98.616714 118.578979,113.171082   C117.648949,117.328514 115.575203,121.230095 113.960449,125.607025   C113.541451,126.411087 113.187897,126.857132 112.490685,127.775375   C110.405090,130.436386 108.663162,132.625214 106.921234,134.814026   C106.154884,134.916626 105.388535,135.019226 104.235870,135.081177   C104.288383,133.361420 104.451920,131.543716 105.215065,130.027863   C108.085739,124.325752 112.103836,119.012405 113.932671,113.016747   C117.068466,102.736404 113.426025,96.110016 103.324905,91.179001   C102.559036,91.061768 102.140808,90.944031 101.158974,90.600677   C99.743347,90.221764 98.891335,90.068466 98.039314,89.915161   C98.039314,89.915161 98.004478,89.981674 98.008591,89.727371   C98.012703,89.473061 97.840034,89.014282 97.840034,89.014282   C97.895020,88.279793 97.950005,87.545303 98.021965,86.442116  z" fill="#f8982d" opacity="1.000000"/>
<path d=" M87.832703,105.999702   C87.870918,104.917244 87.909142,103.834785 87.960159,102.029503   C88.037491,94.859497 88.102028,88.412308 88.422882,81.644989   C88.786232,77.577728 89.005989,73.829079 88.955231,70.084099   C88.927704,68.053177 88.439377,66.028496 88.089264,63.603867   C87.959190,62.135773 87.898773,61.064804 87.838348,59.993839   C88.400909,59.350868 88.963478,58.707897 89.526039,58.064930   C90.017799,58.740551 90.699905,59.353767 90.947655,60.109394   C91.194115,60.861073 91.005424,61.755817 91.005493,62.587830   C91.007324,85.551735 91.047363,108.515854 90.922722,131.479080   C90.914536,132.986542 89.646744,134.487183 88.485413,135.516937   C87.948212,125.361809 87.890457,115.680756 87.832703,105.999702  z" fill="#f8982d" opacity="1.000000"/>
<path d=" M47.577808,126.869995   C47.225918,120.534943 46.975548,114.561111 47.058884,108.591934   C47.074558,107.468842 48.421066,106.364334 49.153461,105.251251   C49.954048,106.369728 51.375473,107.450928 51.445244,108.613274   C51.713825,113.087776 51.695721,117.594727 51.496445,122.076767   C51.361275,125.116905 52.443481,126.245209 55.495815,126.110672   C59.812168,125.920418 64.155853,125.874138 68.460106,126.169998   C69.783424,126.260956 71.015938,127.672989 72.290031,128.480087   C71.013641,129.275009 69.773880,130.675598 68.454239,130.755417   C63.813938,131.036026 59.099121,131.253021 54.508446,130.699326   C52.165306,130.416733 50.026203,128.442459 47.577808,126.869995  z" fill="#f8982d" opacity="1.000000"/>
<path d=" M70.959808,59.186668   C73.372108,62.267628 71.905571,63.222778 69.035217,63.269081   C64.541588,63.341576 60.040428,63.513714 55.555000,63.332729   C52.487564,63.208961 51.307491,64.407059 51.376980,67.370651   C51.466705,71.197380 51.528542,75.034843 51.329983,78.853523   C51.244835,80.491058 50.473640,82.092918 50.014153,83.710991   C49.586121,83.726715 49.158089,83.742439 48.730061,83.758171   C48.141209,82.357658 47.110126,80.977440 47.044746,79.552910   C46.831261,74.901634 46.879257,70.231842 47.000034,65.573669   C47.108490,61.390625 49.446148,59.101826 53.600124,59.024780   C59.256622,58.919865 64.917213,59.035423 70.959808,59.186668  z" fill="#f8982d" opacity="1.000000"/>
<path d=" M119.988083,73.783989   C119.988083,73.783989 120.295746,74.041283 120.637054,74.316650   C121.312370,74.741112 121.646385,74.890198 121.980400,75.039284   C121.980400,75.039284 121.998146,74.998512 122.142792,75.302094   C124.484482,77.452194 126.681511,79.298714 128.878540,81.145241   C128.878540,81.145241 128.984604,81.006325 129.042343,81.385162   C130.263657,84.022972 133.813721,85.675896 130.928284,88.963112   C130.535385,88.950378 130.142487,88.937637 129.284546,88.634293   C121.023735,78.264526 111.176582,72.006393 98.063393,71.831802   C98.063393,71.831802 98.045532,71.956566 98.067024,71.547455   C98.050331,70.089241 98.012154,69.040138 97.973969,67.991028   C97.973969,67.991028 98.005722,67.990524 98.434402,67.862610   C104.529106,68.970940 110.195129,70.207176 116.057396,71.644760   C116.776497,72.055183 117.299355,72.264244 117.822212,72.473312   C117.969978,72.735214 118.188385,72.907608 118.805756,73.220116   C119.354164,73.726189 119.638824,73.837601 119.988083,73.783989  z" fill="#f8982d" opacity="1.000000"/>
<path d=" M98.229477,72.149109   C111.176582,72.006393 121.023735,78.264526 128.989716,88.634232   C128.089584,89.794594 127.019241,90.664406 125.902618,91.941116   C119.445847,83.886559 111.609550,77.708061 100.290802,76.398224   C99.442085,74.963501 98.918823,73.714966 98.229477,72.149109  z" fill="#FFFFFF" opacity="1.000000"/>
<path d=" M102.559586,96.318817   C109.564407,100.165169 110.328644,106.347755 108.705315,112.764244   C107.354668,118.102898 105.651047,123.741348 100.052818,126.381035   C99.519241,126.088509 98.985664,125.795990 98.452087,125.503464   C100.001915,122.293411 101.551743,119.083359 103.124008,115.513596   C103.146446,115.153877 103.125198,115.113754 103.332382,115.018570   C103.791855,114.662346 103.864899,114.358246 103.758682,114.011108   C103.936745,113.409996 104.114807,112.808884 104.502777,111.612305   C104.751175,110.017281 104.789680,109.017715 104.828171,108.018158   C104.867874,107.571930 104.907578,107.125710 104.904716,105.994659   C102.603073,103.480537 100.343994,101.651237 98.084915,99.821938   C98.084915,99.821938 98.030746,99.400673 98.021271,98.829514   C97.992851,97.502899 97.973915,96.747429 97.954971,95.991966   C98.412621,95.867401 98.870262,95.742844 99.908951,95.713326   C100.489998,95.808372 100.985428,95.767982 100.985428,95.767982   C101.403252,95.920685 101.821068,96.073387 102.559586,96.318817  z" fill="#f8982d" opacity="1.000000"/>
<path d=" M115.861153,71.443413   C110.195129,70.207176 104.529106,68.970940 98.423950,67.849548   C97.388451,65.995392 96.271111,64.009567 96.333977,62.061832   C96.404831,59.866463 97.538345,57.705387 98.209656,55.529400   C99.442734,56.122547 100.675819,56.715694 101.542542,57.705673   C100.125397,58.720673 99.074615,59.338840 98.023834,59.957008   C98.875168,60.888000 99.561302,62.324387 100.605400,62.665684   C106.216881,64.499969 111.879341,66.221161 117.617317,67.591522   C118.854202,67.886917 120.474213,66.578117 121.917747,66.008255   C123.061485,68.846657 123.061485,68.846657 118.041489,69.075043   C116.812752,69.901962 116.336952,70.672684 115.861153,71.443413  z" fill="#FFFFFF" opacity="1.000000"/>
<path d=" M121.740402,65.718758   C120.474213,66.578117 118.854202,67.886917 117.617317,67.591522   C111.879341,66.221161 106.216881,64.499969 100.605400,62.665684   C99.561302,62.324387 98.875168,60.888000 98.023834,59.957008   C99.074615,59.338840 100.125397,58.720673 101.585236,58.064926   C108.517212,60.494652 115.040131,62.961956 121.740402,65.718758  z" fill="#f8982d" opacity="1.000000"/>
<path d=" M87.475250,60.091164   C87.898773,61.064804 87.959190,62.135773 88.019928,64.067284   C88.069008,70.606926 88.117783,76.286026 88.166565,81.965126   C88.102028,88.412308 88.037491,94.859497 87.899178,101.710121   C86.235916,101.081863 84.646431,100.050163 82.598755,98.592575   C82.146942,95.107826 82.153313,92.048950 82.159683,88.990082   C82.655235,90.489532 83.150787,91.988983 84.070320,94.771301   C86.759926,84.199730 87.744659,74.787094 86.597839,65.132919   C86.407166,63.527794 86.922874,61.838757 87.475250,60.091164  z" fill="#FFFFFF" opacity="1.000000"/>
<path d=" M80.997169,113.514496   C81.398865,115.058441 81.467697,116.434647 81.610336,119.286728   C76.449036,116.850090 72.043358,114.770187 67.637672,112.690285   C67.894348,111.929382 68.151031,111.168480 68.407707,110.407578   C72.493240,111.387306 76.578773,112.367035 80.997169,113.514496  z" fill="#f8982d" opacity="1.000000"/>
<path d=" M87.452469,106.111504   C87.890457,115.680756 87.948212,125.361809 88.054268,135.507477   C87.405975,134.542358 86.140343,133.125595 86.107330,131.680679   C85.925644,123.728577 86.025978,115.769386 86.104820,107.813370   C86.110100,107.280205 86.735344,106.753181 87.452469,106.111504  z" fill="#FFFFFF" opacity="1.000000"/>
<path d=" M98.092087,100.185257   C100.343994,101.651237 102.603073,103.480537 104.830917,105.665253   C103.815056,105.520981 102.830429,105.021286 101.712173,104.453773   C101.471909,104.933235 101.259697,105.339508 101.062630,105.753006   C100.261757,107.433380 99.529053,109.153839 98.580177,110.745644   C98.472191,110.926796 96.492867,110.261314 96.503670,110.205460   C96.862541,108.349724 97.454208,106.538414 97.801910,104.681297   C98.054451,103.332451 98.010834,101.928154 98.092087,100.185257  z" fill="#FFFFFF" opacity="1.000000"/>
<path d=" M81.868958,88.785156   C82.153313,92.048950 82.146942,95.107826 82.185089,98.559219   C76.554321,100.564018 77.952225,95.400887 77.451515,93.150452   C77.153275,91.810020 76.997986,87.162613 81.868958,88.785156  z" fill="#f8982d" opacity="1.000000"/>
<path d=" M67.862778,77.013893   C68.674591,76.351173 69.486404,75.688454 70.765747,75.476906   C71.695694,79.243515 72.158112,82.558945 72.620529,85.874382   C72.446213,86.306374 72.271904,86.738358 71.663643,87.622345   C70.499969,88.140739 69.770241,88.207153 69.040520,88.273560   C69.040520,88.273560 68.755608,87.963928 68.454376,87.460899   C68.056358,83.643211 67.959572,80.328552 67.862778,77.013893  z" fill="#f8982d" opacity="1.000000"/>
<path d=" M72.791542,85.601028   C72.158112,82.558945 71.695694,79.243515 71.094345,75.545464   C73.901093,75.339317 75.582581,77.629608 74.825729,80.781830   C74.447884,82.355507 73.598595,83.815994 72.791542,85.601028  z" fill="#FFFFFF" opacity="1.000000"/>
<path d=" M131.299774,88.976021   C133.813721,85.675896 130.263657,84.022972 128.976669,81.442886   C132.814133,80.422379 133.409912,83.696213 134.320557,86.159760   C134.521103,86.702240 132.609985,88.025314 131.299774,88.976021  z" fill="#FFFFFF" opacity="1.000000"/>
<path d=" M107.118942,135.094101   C108.663162,132.625214 110.405090,130.436386 112.401352,128.052994   C113.413696,130.900085 110.516869,134.977951 107.118942,135.094101  z" fill="#FFFFFF" opacity="1.000000"/>
<path d=" M67.613525,77.238556   C67.959572,80.328552 68.056358,83.643211 68.254623,87.394859   C67.616226,87.358650 66.213356,86.838943 66.242760,86.419708   C66.453011,83.422737 66.955017,80.446236 67.613525,77.238556  z" fill="#FFFFFF" opacity="1.000000"/>
<path d=" M128.911118,80.761993   C126.681511,79.298714 124.484482,77.452194 122.125977,75.317245   C125.862236,74.762260 128.353760,76.330147 128.911118,80.761993  z" fill="#FFFFFF" opacity="1.000000"/>
<path d=" M122.160873,124.019958   C123.505981,123.165909 124.856049,122.692101 126.469574,121.997314   C126.205383,123.106247 125.677727,124.436165 125.150085,125.766090   C124.155334,125.310791 123.160583,124.855492 122.160873,124.019958  z" fill="#FFFFFF" opacity="1.000000"/>
<path d=" M97.600662,77.067673   C98.000320,78.039764 98.053329,79.083260 98.164429,80.514359   C95.222870,80.336624 95.345245,78.967735 97.600662,77.067673  z" fill="#f8982d" opacity="1.000000"/>
<path d=" M127.040848,121.768158   C126.913887,120.631905 127.156441,119.532104 127.637062,118.188484   C127.720207,119.231316 127.565285,120.517967 127.040848,121.768158  z" fill="#FFFFFF" opacity="1.000000"/>
<path d=" M129.340683,110.710152   C129.031647,108.623215 128.983139,106.253296 128.995697,103.442665   C129.238235,105.477020 129.419708,107.952103 129.340683,110.710152  z" fill="#FFFFFF" opacity="1.000000"/>
<path d=" M97.645187,68.047707   C98.012154,69.040138 98.050331,70.089241 98.127594,71.530052   C96.420929,70.975006 94.904854,69.977104 97.645187,68.047707  z" fill="#f8982d" opacity="1.000000"/>
<path d=" M128.128571,96.856476   C127.500046,96.319542 127.147476,95.580429 126.760468,94.528404   C127.285530,95.028427 127.845032,95.841362 128.128571,96.856476  z" fill="#FFFFFF" opacity="1.000000"/>
<path d=" M97.632034,96.047829   C97.973915,96.747429 97.992851,97.502899 97.946747,98.630661   C97.690826,98.036537 97.499962,97.070114 97.632034,96.047829  z" fill="#FFFFFF" opacity="1.000000"/>
<path d=" M116.057396,71.644760   C116.336952,70.672684 116.812752,69.901962 117.645653,69.066147   C117.974350,69.869408 117.945938,70.737755 117.869873,72.039711   C117.299355,72.264244 116.776497,72.055183 116.057396,71.644760  z" fill="#FFFFFF" opacity="1.000000"/>
<path d=" M98.149277,90.210678   C98.891335,90.068466 99.743347,90.221764 100.831573,90.597885   C100.131599,90.715881 99.195412,90.611038 98.149277,90.210678  z" fill="#FFFFFF" opacity="1.000000"/>
<path d=" M69.248116,88.498131   C69.770241,88.207153 70.499969,88.140739 71.586502,87.963295   C71.114120,88.142403 70.284912,88.432549 69.248116,88.498131  z" fill="#f8982d" opacity="1.000000"/>
<path d=" M104.585114,108.303513   C104.789680,109.017715 104.751175,110.017281 104.453445,111.301239   C104.243492,110.586716 104.292770,109.587799 104.585114,108.303513  z" fill="#FFFFFF" opacity="1.000000"/>
<path d=" M128.904327,101.030350   C128.621841,100.783653 128.379440,100.215530 128.172729,99.332504   C128.453751,99.581375 128.699081,100.145149 128.904327,101.030350  z" fill="#FFFFFF" opacity="1.000000"/>
<path d=" M128.422394,115.741058   C128.261856,115.334106 128.329788,114.682724 128.616928,113.776245   C128.774368,114.179642 128.712616,114.838127 128.422394,115.741058  z" fill="#FFFFFF" opacity="1.000000"/>
<path d=" M101.178986,81.347206   C101.308449,81.042023 101.611687,81.032455 102.094131,81.284531   C102.269768,81.431152 101.828346,81.660522 101.828346,81.660522   C101.828346,81.660522 101.349174,81.527802 101.178986,81.347206  z" fill="#FFFFFF" opacity="1.000000"/>
<path d=" M97.701439,89.130051   C97.840034,89.014282 98.012703,89.473061 98.044388,89.716064   C97.904999,89.721313 97.733925,89.483559 97.701439,89.130051  z" fill="#FFFFFF" opacity="1.000000"/>
<path d=" M103.574829,114.150955   C103.864899,114.358246 103.791855,114.662346 103.322586,115.036453   C103.079056,114.822815 103.174179,114.536575 103.574829,114.150955  z" fill="#FFFFFF" opacity="1.000000"/>
<path d=" M126.789627,93.985931   C126.572159,94.001068 126.341820,93.763962 126.112190,93.266159   C126.334190,93.248199 126.555473,93.490944 126.789627,93.985931  z" fill="#FFFFFF" opacity="1.000000"/>
<path d=" M119.858047,73.593636   C119.638824,73.837601 119.354164,73.726189 119.017502,73.241302   C119.223160,73.052422 119.498863,73.175896 119.858047,73.593636  z" fill="#FFFFFF" opacity="1.000000"/>
<path d=" M121.840912,74.794342   C121.646385,74.890198 121.312370,74.741112 120.834549,74.351402   C121.027641,74.256989 121.364532,74.403191 121.840912,74.794342  z" fill="#FFFFFF" opacity="1.000000"/>
<path d=" M100.910400,95.632584   C100.985428,95.767982 100.489998,95.808372 100.271332,95.690231   C100.297684,95.290535 100.558586,95.265556 100.910400,95.632584  z" fill="#FFFFFF" opacity="1.000000" />
<path d=" M88.422882,81.644989   C88.117783,76.286026 88.069008,70.606926 88.089569,64.464417   C88.439377,66.028496 88.927704,68.053177 88.955231,70.084099   C89.005989,73.829079 88.786232,77.577728 88.422882,81.644989  z" fill="#f8982d" opacity="1.000000" />
</svg>